<?xml version="1.0" encoding="utf-8"?>
<!-- Generator: Adobe Illustrator 26.0.3, SVG Export Plug-In . SVG Version: 6.00 Build 0)  -->
<svg version="1.1" id="Layer_1" xmlns="http://www.w3.org/2000/svg" xmlns:xlink="http://www.w3.org/1999/xlink" x="0px" y="0px"
	 viewBox="0 0 360 120" style="enable-background:new 0 0 360 120;" xml:space="preserve">
<style type="text/css">
	.st0{fill:#FFFFFF;}
</style>
<g>
	<g>
		<g>
			<path class="st0" d="M5,7.03c0-2.85,2.31-5.16,5.15-5.16s5.15,2.31,5.15,5.16c0,2.84-2.31,5.15-5.15,5.15S5,9.88,5,7.03z
				 M48.85,20.89c0,5.84-1.9,11.57-5.69,14.93c-3.8,3.36-9.28,6.17-16.46,6.17H15.31v21.74H5V33.83h20.61
				c8.5,0,12.75-5.82,12.75-12.95c0-3.5-1.01-6.18-3.03-8.01c-1.82-1.65-4.62-2.56-8.41-2.73V1.88c7.24,0.03,12.7,1.73,16.36,5.08
				C46.99,10.35,48.85,14.99,48.85,20.89z"/>
			<path class="st0" d="M56.9,49.45c0,2.85-2.31,5.15-5.15,5.15c-2.85,0-5.15-2.31-5.15-5.15c0-2.84,2.31-5.15,5.15-5.15
				C54.6,44.29,56.9,46.6,56.9,49.45z M83.8,1.97v44.85c0,5.55-1.6,9.87-4.79,12.97c-3.19,3.1-7.63,4.64-13.29,4.64
				c-3.67,0-6.86-0.62-9.58-1.84l6.48-7.54c0.81,0.18,1.69,0.27,2.65,0.27c2.83,0,4.91-0.79,6.24-2.37
				c1.32-1.58,1.99-3.62,1.99-6.13V1.97H83.8z"/>
		</g>
		<g>
			<path class="st0" d="M93.16,33.76c0-17.23,13.6-30.66,30.66-30.66c16.98,0,30.66,13.43,30.66,30.66
				c0,17.23-13.68,30.66-30.66,30.66C106.75,64.42,93.16,50.99,93.16,33.76z M144.43,33.76c0-11.91-8.78-21.2-20.61-21.2
				c-11.91,0-20.69,9.29-20.69,21.2c0,11.91,8.78,21.2,20.69,21.2C135.64,54.96,144.43,45.67,144.43,33.76z"/>
			<path class="st0" d="M159.97,54.2l7.43-6.25c2.79,3.89,7.52,7.18,12.67,7.18c5.83,0,9.29-2.62,9.29-6.92
				c0-4.48-2.87-6.93-8.78-9.55l-4.73-2.03c-9.04-3.97-13.43-9.88-13.43-17.65c0-9.63,8.7-15.88,17.82-15.88
				c6.84,0,12.33,2.36,16.81,7.6l-6.84,7.01c-3.04-3.72-5.83-5.32-10.14-5.32c-4.05,0-7.77,2.36-7.77,6.5
				c0,3.89,2.53,6.42,8.62,9.04l4.65,2.03c8.19,3.63,13.68,9.04,13.68,17.4c0,10.14-7.52,17.06-19.01,17.06
				C171.2,64.42,163.77,60.28,159.97,54.2z"/>
			<path class="st0" d="M209.72,3.78h35.56v9.63h-25.76v15.2h20.69v9.46h-20.69v16.05h25.76v9.63h-35.56V3.78z"/>
			<path class="st0" d="M256.94,3.78h17.99c12.25,0,20.69,7.77,20.69,19.09c0,11.15-8.45,19.09-20.69,19.09h-8.19v21.79h-9.8V3.78z
				 M274.76,32.83c7.01,0,11.06-3.97,11.06-9.97c0-5.91-4.05-9.97-11.06-9.97h-8.02v19.93H274.76z"/>
			<path class="st0" d="M305.59,3.78h9.8v24.83h29.82V3.78h9.8v59.97h-9.8V38.07h-29.82v25.68h-9.8V3.78z"/>
		</g>
	</g>
	<g>
		<path class="st0" d="M5,88.95h8.57c8.9,0,15.4,6.18,15.4,14.42c0,8.25-6.5,14.42-15.4,14.42H5V88.95z M13.57,114.35
			c6.99,0,11.62-4.67,11.62-10.97c0-6.3-4.63-10.97-11.62-10.97H8.7v21.94H13.57z"/>
		<path class="st0" d="M41.2,88.95h16.66v3.58H44.89v8.73h10.52v3.58H44.89v9.38h12.96v3.58H41.2V88.95z"/>
		<path class="st0" d="M66.38,88.95h4.06l9.26,20.68l9.22-20.68h4.06l-13.29,29.17L66.38,88.95z"/>
		<path class="st0" d="M103.39,88.95h16.66v3.58h-12.96v8.73h10.52v3.58h-10.52v9.38h12.96v3.58h-16.66V88.95z"/>
		<path class="st0" d="M132.44,88.95h3.7v25.23h12.64v3.62h-16.33V88.95z"/>
		<path class="st0" d="M156.12,103.38c0-8.37,6.5-14.75,14.75-14.75c8.25,0,14.75,6.38,14.75,14.75c0,8.37-6.5,14.75-14.75,14.75
			C162.62,118.12,156.12,111.75,156.12,103.38z M181.84,103.38c0-6.34-4.67-11.21-10.97-11.21c-6.3,0-10.97,4.88-10.97,11.21
			c0,6.34,4.67,11.21,10.97,11.21C177.16,114.59,181.84,109.71,181.84,103.38z"/>
		<path class="st0" d="M197.84,88.95h8.17c6.05,0,9.99,3.37,9.99,8.82c0,5.36-3.94,8.82-9.99,8.82h-4.47v11.21h-3.7V88.95z
			 M205.88,103.17c4.14,0,6.34-1.99,6.34-5.4c0-3.37-2.19-5.4-6.34-5.4h-4.35v10.81H205.88z"/>
		<path class="st0" d="M227.66,88.63l14.06,15.48l14.06-15.48v29.17h-3.7V97.73l-10.36,11.58l-10.36-11.58v20.07h-3.7V88.63z"/>
		<path class="st0" d="M269.99,88.95h16.66v3.58h-12.96v8.73h10.52v3.58h-10.52v9.38h12.96v3.58h-16.66V88.95z"/>
		<path class="st0" d="M302.73,97.28v20.52h-3.7V88.63l20.56,20.84V88.95h3.7v29.17L302.73,97.28z"/>
		<path class="st0" d="M342.46,92.53h-8.17v-3.58h20.07v3.58h-8.21v25.27h-3.7V92.53z"/>
	</g>
</g>
</svg>
